<svg viewBox="0 0 24 24" width="24" height="24" xmlns="http://www.w3.org/2000/svg"><path d="M12 2c5.514 0 10 4.486 10 10s-4.486 10-10 10S2 17.514 2 12 6.486 2 12 2zm0-2C5.373 0 0 5.373 0 12s5.373 12 12 12 12-5.373 12-12S18.627 0 12 0zm0 7.082c1.602 0 1.792.006 2.425.035 1.627.074 2.385.845 2.46 2.459.028.633.034.822.034 2.424 0 1.602-.006 1.792-.034 2.424-.075 1.613-.832 2.386-2.46 2.46-.633.028-.822.035-2.425.035-1.602 0-1.792-.006-2.424-.035-1.63-.075-2.385-.849-2.46-2.46-.028-.632-.035-.822-.035-2.424 0-1.602.007-1.792.035-2.424.074-1.615.832-2.386 2.46-2.46.632-.029.822-.034 2.424-.034zM12 6c-1.63 0-1.833.007-2.474.037-2.18.1-3.39 1.309-3.49 3.489C6.007 10.167 6 10.371 6 12c0 1.63.007 1.834.036 2.474.1 2.179 1.31 3.39 3.49 3.49.641.029.844.036 2.474.036 1.63 0 1.834-.007 2.475-.036 2.176-.1 3.391-1.309 3.489-3.49.029-.64.036-.844.036-2.474 0-1.629-.007-1.833-.036-2.474-.098-2.177-1.309-3.39-3.489-3.489C13.834 6.007 13.63 6 12 6zm0 2.919a3.081 3.081 0 100 6.162 3.081 3.081 0 000-6.162zM12 14a2 2 0 110-4 2 2 0 110 4zm3.202-5.922a.72.72 0 100 1.44.72.72 0 000-1.44z" fill="#454545"/><path d="M11.44 23.968a11.922 11.922 0 01-7.572-3.178c-1.63-1.524-2.726-3.287-3.364-5.41C.178 14.298.027 13.227.027 12c0-.937.075-1.678.256-2.524.35-1.638 1.12-3.328 2.115-4.645A12.088 12.088 0 018.59.513C9.703.178 10.763.027 12 .027c.933 0 1.678.075 2.524.256a11.995 11.995 0 015.609 2.927 11.886 11.886 0 011.843 2.163c.636.961 1.031 1.77 1.39 2.848.372 1.118.56 2.134.6 3.248.057 1.578-.123 2.877-.6 4.31a11.68 11.68 0 01-2.987 4.768c-1.35 1.324-2.837 2.235-4.6 2.82-1.063.351-2.1.551-3.064.59l-.582.024c-.106.005-.418 0-.694-.013zm1.691-2.02a10.011 10.011 0 008.328-6.67 9.553 9.553 0 00.544-3.263c.001-1.607-.314-2.98-1.014-4.414-.508-1.042-1.073-1.83-1.917-2.673a9.751 9.751 0 00-3.193-2.162 10.124 10.124 0 00-4.43-.76C10.023 2.092 8.846 2.4 7.6 3.01a9.353 9.353 0 00-2.673 1.917 9.755 9.755 0 00-1.525 1.935A10.039 10.039 0 003.3 16.96c.698 1.226 1.74 2.373 2.934 3.228 1.472 1.055 3.346 1.704 5.248 1.817.336.02 1.26-.012 1.648-.057z" fill="#454545"/></svg>