<?xml version="1.0" encoding="UTF-8" standalone="no"?>
<svg
   viewBox="0 0 24 24"
   width="24"
   height="24"
   version="1.1"
   id="svg1"
   sodipodi:docname="twitter_grey.svg"
   xmlns:inkscape="http://www.inkscape.org/namespaces/inkscape"
   xmlns:sodipodi="http://sodipodi.sourceforge.net/DTD/sodipodi-0.dtd"
   xmlns="http://www.w3.org/2000/svg"
   xmlns:svg="http://www.w3.org/2000/svg">
  <defs
     id="defs1" />
  <sodipodi:namedview
     id="namedview1"
     pagecolor="#ffffff"
     bordercolor="#000000"
     borderopacity="0.25"
     inkscape:showpageshadow="2"
     inkscape:pageopacity="0.0"
     inkscape:pagecheckerboard="0"
     inkscape:deskcolor="#d1d1d1" />
  <path
     d="M 12,2 C 17.514,2 22,6.486 22,12 22,17.514 17.514,22 12,22 6.486,22 2,17.514 2,12 2,6.486 6.486,2 12,2 Z M 12,0 C 5.373,0 0,5.373 0,12 0,18.627 5.373,24 12,24 18.627,24 24,18.627 24,12 24,5.373 18.627,0 12,0 Z m 6.5,8.778 A 4.928,4.928 0 0 1 17.086,9.166 2.473,2.473 0 0 0 18.169,7.804 4.926,4.926 0 0 1 16.605,8.401 2.464,2.464 0 0 0 12.41,10.646 6.993,6.993 0 0 1 7.336,8.074 2.465,2.465 0 0 0 8.098,11.361 2.457,2.457 0 0 1 6.984,11.053 c -0.027,1.14 0.791,2.207 1.975,2.445 a 2.467,2.467 0 0 1 -1.112,0.042 2.465,2.465 0 0 0 2.3,1.709 4.955,4.955 0 0 1 -3.647,1.021 6.963,6.963 0 0 0 3.773,1.106 c 4.572,0 7.154,-3.861 6.998,-7.324 0.482,-0.346 0.899,-0.78 1.229,-1.274 z"
     fill="#454545"
     id="path1"
     style="fill:#ffffff;fill-opacity:1" />
</svg>
