<?xml version="1.0" encoding="UTF-8" standalone="no"?>
<svg
   viewBox="0 0 24 24"
   width="24"
   height="24"
   version="1.1"
   id="svg2"
   sodipodi:docname="instagram_grey.svg"
   xmlns:inkscape="http://www.inkscape.org/namespaces/inkscape"
   xmlns:sodipodi="http://sodipodi.sourceforge.net/DTD/sodipodi-0.dtd"
   xmlns="http://www.w3.org/2000/svg"
   xmlns:svg="http://www.w3.org/2000/svg">
  <defs
     id="defs2" />
  <sodipodi:namedview
     id="namedview2"
     pagecolor="#ffffff"
     bordercolor="#000000"
     borderopacity="0.25"
     inkscape:showpageshadow="2"
     inkscape:pageopacity="0.0"
     inkscape:pagecheckerboard="0"
     inkscape:deskcolor="#d1d1d1" />
  <g
     id="g2"
     style="fill:#ffffff;fill-opacity:1">
    <path
       d="M 12,2 C 17.514,2 22,6.486 22,12 22,17.514 17.514,22 12,22 6.486,22 2,17.514 2,12 2,6.486 6.486,2 12,2 Z M 12,0 C 5.373,0 0,5.373 0,12 0,18.627 5.373,24 12,24 18.627,24 24,18.627 24,12 24,5.373 18.627,0 12,0 Z m 0,7.082 c 1.602,0 1.792,0.006 2.425,0.035 1.627,0.074 2.385,0.845 2.46,2.459 0.028,0.633 0.034,0.822 0.034,2.424 0,1.602 -0.006,1.792 -0.034,2.424 -0.075,1.613 -0.832,2.386 -2.46,2.46 -0.633,0.028 -0.822,0.035 -2.425,0.035 -1.602,0 -1.792,-0.006 -2.424,-0.035 C 7.946,16.809 7.191,16.035 7.116,14.424 7.088,13.792 7.081,13.602 7.081,12 7.081,10.398 7.088,10.208 7.116,9.576 7.19,7.961 7.948,7.19 9.576,7.116 10.208,7.087 10.398,7.082 12,7.082 Z M 12,6 C 10.37,6 10.167,6.007 9.526,6.037 7.346,6.137 6.136,7.346 6.036,9.526 6.007,10.167 6,10.371 6,12 c 0,1.63 0.007,1.834 0.036,2.474 0.1,2.179 1.31,3.39 3.49,3.49 C 10.167,17.993 10.37,18 12,18 c 1.63,0 1.834,-0.007 2.475,-0.036 2.176,-0.1 3.391,-1.309 3.489,-3.49 C 17.993,13.834 18,13.63 18,12 18,10.371 17.993,10.167 17.964,9.526 17.866,7.349 16.655,6.136 14.475,6.037 13.834,6.007 13.63,6 12,6 Z m 0,2.919 a 3.081,3.081 0 1 0 0,6.162 3.081,3.081 0 0 0 0,-6.162 z M 12,14 a 2,2 0 1 1 0,-4 2,2 0 1 1 0,4 z m 3.202,-5.922 a 0.72,0.72 0 1 0 0,1.44 0.72,0.72 0 0 0 0,-1.44 z"
       fill="#454545"
       id="path1"
       style="fill:#ffffff;fill-opacity:1" />
    <path
       d="M 11.44,23.968 A 11.922,11.922 0 0 1 3.868,20.79 C 2.238,19.266 1.142,17.503 0.504,15.38 0.178,14.298 0.027,13.227 0.027,12 0.027,11.063 0.102,10.322 0.283,9.476 0.633,7.838 1.403,6.148 2.398,4.831 A 12.088,12.088 0 0 1 8.59,0.513 C 9.703,0.178 10.763,0.027 12,0.027 c 0.933,0 1.678,0.075 2.524,0.256 a 11.995,11.995 0 0 1 5.609,2.927 11.886,11.886 0 0 1 1.843,2.163 c 0.636,0.961 1.031,1.77 1.39,2.848 0.372,1.118 0.56,2.134 0.6,3.248 0.057,1.578 -0.123,2.877 -0.6,4.31 a 11.68,11.68 0 0 1 -2.987,4.768 c -1.35,1.324 -2.837,2.235 -4.6,2.82 -1.063,0.351 -2.1,0.551 -3.064,0.59 l -0.582,0.024 c -0.106,0.005 -0.418,0 -0.694,-0.013 z m 1.691,-2.02 a 10.011,10.011 0 0 0 8.328,-6.67 9.553,9.553 0 0 0 0.544,-3.263 C 22.004,10.408 21.689,9.035 20.989,7.601 20.481,6.559 19.916,5.771 19.072,4.928 A 9.751,9.751 0 0 0 15.879,2.766 10.124,10.124 0 0 0 11.449,2.006 C 10.023,2.092 8.846,2.4 7.6,3.01 A 9.353,9.353 0 0 0 4.927,4.927 9.755,9.755 0 0 0 3.402,6.862 10.039,10.039 0 0 0 3.3,16.96 c 0.698,1.226 1.74,2.373 2.934,3.228 1.472,1.055 3.346,1.704 5.248,1.817 0.336,0.02 1.26,-0.012 1.648,-0.057 z"
       fill="#454545"
       id="path2"
       style="fill:#ffffff;fill-opacity:1" />
  </g>
</svg>
