<?xml version="1.0" encoding="UTF-8" standalone="no"?>
<svg
   viewBox="0 0 24 24"
   width="24"
   height="24"
   version="1.1"
   id="svg1"
   sodipodi:docname="linkedin_grey.svg"
   xmlns:inkscape="http://www.inkscape.org/namespaces/inkscape"
   xmlns:sodipodi="http://sodipodi.sourceforge.net/DTD/sodipodi-0.dtd"
   xmlns="http://www.w3.org/2000/svg"
   xmlns:svg="http://www.w3.org/2000/svg">
  <defs
     id="defs1" />
  <sodipodi:namedview
     id="namedview1"
     pagecolor="#ffffff"
     bordercolor="#000000"
     borderopacity="0.25"
     inkscape:showpageshadow="2"
     inkscape:pageopacity="0.0"
     inkscape:pagecheckerboard="0"
     inkscape:deskcolor="#d1d1d1" />
  <path
     d="M 12,2 C 17.514,2 22,6.486 22,12 22,17.514 17.514,22 12,22 6.486,22 2,17.514 2,12 2,6.486 6.486,2 12,2 Z M 12,0 C 5.373,0 0,5.373 0,12 0,18.627 5.373,24 12,24 18.627,24 24,18.627 24,12 24,5.373 18.627,0 12,0 Z M 10,8 C 10,8.557 9.553,9.008 9,9.008 8.447,9.008 8,8.558 8,8 8,7.443 8.447,6.992 9,6.992 c 0.553,0 1,0.452 1,1.008 z m 0,2 H 8 v 6 h 2 z m 3,0 h -2 v 6 h 2 v -2.861 c 0,-1.722 2.002,-1.881 2.002,0 V 16 H 17 V 12.641 C 17,9.357 13.872,9.477 13,11.093 Z"
     fill="#454545"
     id="path1"
     style="fill:#ffffff;fill-opacity:1" />
</svg>
